<?xml version="1.0" standalone="no"?><!DOCTYPE svg PUBLIC "-//W3C//DTD SVG 1.1//EN" "http://www.w3.org/Graphics/SVG/1.1/DTD/svg11.dtd"><svg t="1615481025650" class="icon" viewBox="0 0 1024 1024" version="1.1" xmlns="http://www.w3.org/2000/svg" p-id="1289" xmlns:xlink="http://www.w3.org/1999/xlink" width="200" height="200"><defs><style type="text/css"></style></defs><path d="M992 896H32c-17.68 0-32 14.32-32 32v64c0 17.68 14.32 32 32 32h960c17.68 0 32-14.32 32-32v-64c0-17.68-14.32-32-32-32z m-608-128l-128-64 128-64 64-128 64 128 128 64-128 64-32 64h416l-172.82-403.26a127.91 127.91 0 0 1-3.78-90.9L832 0 456.84 214.38a255.978 255.978 0 0 0-106.92 118.3L128 832h288l-32-64z m128-448l32-64 32 64 64 32-64 32-32 64-32-64-64-32 64-32z" p-id="1290" fill="#707070"></path></svg>