<?xml version="1.0" standalone="no"?><!DOCTYPE svg PUBLIC "-//W3C//DTD SVG 1.1//EN" "http://www.w3.org/Graphics/SVG/1.1/DTD/svg11.dtd"><svg t="1615525586564" class="icon" viewBox="0 0 1024 1024" version="1.1" xmlns="http://www.w3.org/2000/svg" p-id="2333" xmlns:xlink="http://www.w3.org/1999/xlink" width="200" height="200"><defs><style type="text/css"></style></defs><path d="M545.741388 420.23365l16.359461 34.763854a58.689566 58.689566 0 0 0 44.477284 33.230155l40.387419 6.134797-31.185222 31.696456a59.251922 59.251922 0 0 0-16.359461 51.123315l6.646031 41.921118-31.696456-17.89316a60.836745 60.836745 0 0 0-57.258112 0l-32.718922 17.89316 6.646031-41.921118a59.251922 59.251922 0 0 0-16.359461-51.123315l-31.185222-31.696456 40.387419-6.134797a58.689566 58.689566 0 0 0 44.477284-33.230155l17.381927-34.763854m0-84.35347a15.950474 15.950474 0 0 0-13.292062 8.17973l-42.943585 91.510734a14.621268 14.621268 0 0 1-11.247129 8.17973l-97.645532 14.825762a15.030255 15.030255 0 0 0-8.17973 25.050424l71.572641 73.106341a14.723515 14.723515 0 0 1 3.578632 12.780828l-16.870694 102.757864a14.570145 14.570145 0 0 0 14.825761 16.870694 13.956665 13.956665 0 0 0 7.157265-2.044933l85.887169-47.03345a11.400499 11.400499 0 0 1 7.157264-1.533699 18.04653 18.04653 0 0 1 7.157264 1.533699l85.887169 47.03345a11.758362 11.758362 0 0 0 7.157264 2.044933 14.570145 14.570145 0 0 0 14.825762-16.870694l-16.870694-102.757864a15.950474 15.950474 0 0 1 3.578632-12.780828l71.572641-73.106341a14.979131 14.979131 0 0 0-8.179731-25.050424L614.24663 443.750374a14.314528 14.314528 0 0 1-11.247129-8.17973l-42.943585-91.510734a18.35327 18.35327 0 0 0-14.314528-8.17973z" p-id="2334" fill="#8a8a8a"></path><path d="M863.728407 440.682976c-19.42686-158.482277-153.369945-282.711932-317.475786-282.711933a319.418472 319.418472 0 0 0-319.009486 319.009486v3.578632c-21.983025 23.005492-69.527708 75.151273-69.527708 111.448827 0 40.387419 38.342486 56.235647 65.949076 56.74688l31.185222 6.646031 6.134798 153.369945a57.513729 57.513729 0 0 0 57.769346 56.746879h117.583625a23.005492 23.005492 0 0 0 0-46.010983h-117.583625a11.911732 11.911732 0 0 1-11.758362-11.758363l-7.157264-189.156265-67.994009-14.825762-2.044933-0.511233h-2.044933a43.863804 43.863804 0 0 1-15.336994-3.067399c-7.157264-3.067399-7.157264-6.134798-7.157264-8.17973 0-13.292062 28.629056-53.168248 61.859211-85.887169a24.334698 24.334698 0 0 0 6.134798-23.005492 29.14029 29.14029 0 0 0 0.511233-6.646031 272.742886 272.742886 0 0 1 522.48028-109.915127c23.516725 59.303045 61.859211 207.560659-76.17374 351.217174 0 0-8.690964 39.876186 36.808787 28.117823 0 0.511233 127.808288-104.291563 106.847728-305.20619z" p-id="2335" fill="#8a8a8a"></path><path d="M941.435846 51.123315a30.673989 30.673989 0 0 1 30.673989 30.673989v860.405392a30.673989 30.673989 0 0 1-30.673989 30.673989H82.564154a30.673989 30.673989 0 0 1-30.673989-30.673989V81.797304a30.673989 30.673989 0 0 1 30.673989-30.673989h858.871692m0-51.123315H82.564154A81.797304 81.797304 0 0 0 0.76685 81.797304v860.405392a81.797304 81.797304 0 0 0 81.797304 81.797304h858.871692a81.797304 81.797304 0 0 0 81.797304-81.797304V81.797304a81.797304 81.797304 0 0 0-81.797304-81.797304z" p-id="2336" fill="#8a8a8a"></path></svg>