<?xml version="1.0" standalone="no"?><!DOCTYPE svg PUBLIC "-//W3C//DTD SVG 1.1//EN" "http://www.w3.org/Graphics/SVG/1.1/DTD/svg11.dtd"><svg t="1615526271841" class="icon" viewBox="0 0 1024 1024" version="1.1" xmlns="http://www.w3.org/2000/svg" p-id="4103" xmlns:xlink="http://www.w3.org/1999/xlink" width="200" height="200"><defs><style type="text/css"></style></defs><path d="M21.333333 192v640a128 128 0 0 0 128 128h725.333334a128 128 0 0 0 128-128V192a128 128 0 0 0-128-128H149.333333a128 128 0 0 0-128 128z m896 21.333333v64H106.666667v-64a64 64 0 0 1 64-64h682.666666a64 64 0 0 1 64 64zM106.666667 810.666667V362.666667h810.666666v448a64 64 0 0 1-64 64H170.666667a64 64 0 0 1-64-64z" p-id="4104" fill="#8a8a8a"></path><path d="M324.266667 599.04l59.733333-60.373333a42.666667 42.666667 0 0 0 0-60.373334 42.666667 42.666667 0 0 0-60.373333 0l-60.373334 60.373334L234.666667 568.96a42.666667 42.666667 0 0 0 0 60.373333l30.08 30.08 60.373333 60.373334a42.666667 42.666667 0 0 0 60.373333 0 42.666667 42.666667 0 0 0 0-60.373334zM699.306667 599.04L640 659.413333a42.666667 42.666667 0 0 0 0 60.373334 42.666667 42.666667 0 0 0 60.373333 0l60.373334-60.373334L789.333333 629.333333a42.666667 42.666667 0 0 0 0-60.373333l-30.08-30.08-60.373333-60.373333a42.666667 42.666667 0 0 0-60.373333 0 42.666667 42.666667 0 0 0 0 60.373333z" p-id="4105" fill="#8a8a8a"></path><path d="M514.060906 423.695927m41.212835 11.042946l0 0q41.212835 11.042946 30.16989 52.255781l-66.257676 247.277012q-11.042946 41.212835-52.255781 30.169889l0 0q-41.212835-11.042946-30.169889-52.255781l66.257675-247.277012q11.042946-41.212835 52.255781-30.169889Z" p-id="4106" fill="#8a8a8a"></path></svg>