
<svg xmlns="http://www.w3.org/2000/svg" version="1.1" xmlns:xlink="http://www.w3.org/1999/xlink" preserveAspectRatio="none" x="0px" y="0px" width="1024px" height="1024px" viewBox="0 0 1024 1024">
<defs>
<g id="Layer0_0_MEMBER_0_MEMBER_0_FILL">
<path fill="#3EB4A5" stroke="none" d="
M 148.7 59.65
Q 148.85 57.45 146.65 56.1 144.9 54.95 143.1 54.5 144.3 59.6 147.15 64 148.6 60.9 148.7 59.65 Z"/>
</g>

<g id="Layer0_0_MEMBER_0_MEMBER_1_FILL">
<path fill="#54CDBB" stroke="none" d="
M 177.5 58.2
Q 175.55 60.8 173.5 61.8 163.5 66.8 156 58.55 154.5 56.9 149.9 50.55 146.15 45.35 143.35 43.05
L 142.95 42.75
Q 142.4 45.5 142.4 48.15 142.4 51.3 143.1 54.5 144.9 54.95 146.65 56.1 148.85 57.45 148.7 59.65 148.6 60.9 147.15 64 151.3 70.25 158.15 73.8 164.1 68.35 172.5 67.25 179.2 66.4 188.15 68.3 189.45 68.3 190.85 69.15 196.65 63.65 198.8 56.25 194.15 51.85 189.8 50.4 184.6 48.5 180.7 53.65 178.65 56.7 177.5 58.2 Z"/>
</g>

<g id="Layer0_0_MEMBER_0_MEMBER_2_FILL">
<path fill="#3EB4A5" stroke="none" d="
M 188.15 68.3
Q 179.2 66.4 172.5 67.25 164.1 68.35 158.15 73.8 164.2 76.9 171.2 76.9 176.8 76.9 181.95 74.85 186.9 72.85 190.85 69.15 189.45 68.3 188.15 68.3 Z"/>
</g>

<g id="Layer0_0_MEMBER_0_MEMBER_3_FILL">
<path fill="#3EB4A5" stroke="none" d="
M 150.85 42.15
Q 153.85 43.7 155.6 39.8 157.45 37.25 155.1 34.55 153.5 32.8 148.85 30 146.2 33.35 144.55 37.3 146.95 39.05 150.85 42.15 Z"/>
</g>

<g id="Layer0_0_MEMBER_0_MEMBER_4_FILL">
<path fill="#43E9C7" stroke="none" d="
M 199.95 48.15
Q 199.95 45.9 199.55 43.5 195.2 44.9 191.35 44.4 187.35 43.9 184.9 41.45 182.95 39.1 186.5 36.3 188.55 34.65 194.2 30.9 192.4 28.5 190.15 26.55 184.8 26.9 181.65 30.85 180.35 33.2 178.1 42.25 176.45 48.9 172.7 51.2 170 52.8 167.2 51.4 165.55 50.6 162.9 47.95 161.35 45.85 160.6 42.35 160.55 42.15 159.65 36.05 158.5 28.25 153.95 25.95
L 153.25 25.7
Q 150.75 27.65 148.85 30 153.5 32.8 155.1 34.55 157.45 37.25 155.6 39.8 153.85 43.7 150.85 42.15 146.95 39.05 144.55 37.3 143.45 40.05 142.95 42.75
L 143.35 43.05
Q 146.15 45.35 149.9 50.55 154.5 56.9 156 58.55 163.5 66.8 173.5 61.8 175.55 60.8 177.5 58.2 178.65 56.7 180.7 53.65 184.6 48.5 189.8 50.4 194.15 51.85 198.8 56.25 199.95 52.35 199.95 48.15 Z"/>
</g>

<g id="Layer0_0_MEMBER_0_MEMBER_5_FILL">
<path fill="#3EB4A5" stroke="none" d="
M 186.5 36.3
Q 182.95 39.1 184.9 41.45 187.35 43.9 191.35 44.4 195.2 44.9 199.55 43.5 198.4 36.5 194.2 30.9 188.55 34.65 186.5 36.3 Z"/>
</g>

<g id="Layer0_0_MEMBER_0_MEMBER_6_FILL">
<path fill="#96FEEA" stroke="none" d="
M 165.75 25.8
Q 165.1 30 165.35 31.65 165.35 33.55 167.4 34.9 169.5 36.35 171.85 35.75 175.6 33.7 176.2 28.9 176.45 26.95 175.95 19.8 173.45 19.4 171.2 19.4 168.8 19.4 166.15 19.8 166.45 21.6 165.75 25.8 Z"/>
</g>

<g id="Layer0_0_MEMBER_0_MEMBER_7_FILL">
<path fill="#5FFEDE" stroke="none" d="
M 176.2 28.9
Q 175.6 33.7 171.85 35.75 169.5 36.35 167.4 34.9 165.35 33.55 165.35 31.65 165.1 30 165.75 25.8 166.45 21.6 166.15 19.8 158.85 21.15 153.25 25.7
L 153.95 25.95
Q 158.5 28.25 159.65 36.05 160.55 42.15 160.6 42.35 161.35 45.85 162.9 47.95 165.55 50.6 167.2 51.4 170 52.8 172.7 51.2 176.45 48.9 178.1 42.25 180.35 33.2 181.65 30.85 184.8 26.9 190.15 26.55 183.95 21.15 175.95 19.8 176.45 26.95 176.2 28.9 Z"/>
</g>

<g id="Layer0_0_MEMBER_0_MEMBER_8_FILL">
<path fill="#54CDBB" stroke="none" d="
M 166.7 59
Q 167.05 58.15 166.15 57.05 165.2 56 163.6 55.35 162 54.75 160.6 54.95 159.2 55.1 158.85 56 158.5 56.9 159.45 58 160.35 59.05 161.95 59.65 163.55 60.3 164.95 60.1 166.35 59.9 166.7 59 Z"/>
</g>

<g id="Layer0_0_MEMBER_0_MEMBER_9_FILL">
<path fill="#43E9C7" stroke="none" d="
M 173.35 44.45
Q 173.05 43.2 171.65 42.6 170.25 41.95 168.55 42.35 166.85 42.75 165.9 43.9 164.9 45.05 165.15 46.3 165.45 47.55 166.85 48.2 168.25 48.8 169.95 48.4 171.65 48 172.65 46.85 173.6 45.7 173.35 44.45 Z"/>
</g>

<g id="Layer0_0_MEMBER_0_MEMBER_10_FILL">
<path fill="#3EB4A5" stroke="none" d="
M 189.3 58.65
Q 189.85 57.5 189.5 56.35 189.1 55.1 188 54.6 186.9 54.05 185.75 54.45 184.55 54.85 183.95 55.95 183.4 57.1 183.75 58.3 184.15 59.5 185.25 60.05 186.35 60.6 187.5 60.2 188.7 59.8 189.3 58.65 Z"/>
</g>

<g id="Layer0_0_MEMBER_0_MEMBER_11_FILL">
<path fill="#288778" stroke="none" d="
M 175.7 70.7
Q 175.65 70.05 174.75 69.7 173.85 69.3 172.6 69.4 171.35 69.5 170.55 69.95 169.7 70.45 169.75 71.1 169.8 71.75 170.7 72.15 171.55 72.55 172.8 72.45 174.05 72.35 174.9 71.85 175.75 71.35 175.7 70.7 Z"/>
</g>

<g id="Layer0_0_MEMBER_0_MEMBER_12_FILL">
<path fill="#96FEEA" stroke="none" d="
M 163.6 23.7
Q 163.3 23.15 162.3 23.15 161.35 23.15 160.25 23.7 159.15 24.25 158.6 25.1 158 25.9 158.3 26.45 158.55 27 159.55 27 160.55 27 161.65 26.45 162.75 25.9 163.3 25.1 163.85 24.25 163.6 23.7 Z"/>
</g>

<g id="Layer0_0_MEMBER_0_MEMBER_13_FILL">
<path fill="#43E9C7" stroke="none" d="
M 193.2 38.95
Q 193.15 38.3 192.25 37.95 191.35 37.6 190.15 37.65 188.9 37.75 188.05 38.25 187.25 38.75 187.3 39.4 187.35 40.05 188.25 40.45 189.15 40.8 190.35 40.7 191.6 40.65 192.45 40.1 193.3 39.6 193.2 38.95 Z"/>
</g>

<g id="Layer0_0_MEMBER_1_FILL">
<path fill="#000000" fill-opacity="0.2" stroke="none" d="
M 194.1 30.75
Q 188.35 23.2 179.25 20.55 180.4 24.45 180.4 28.6 180.4 40.55 172 48.95 163.55 57.4 151.65 57.4 147.8 57.4 143.55 56.25 146.2 65.3 153.8 71.05 161.5 76.9 171.2 76.9 183.1 76.9 191.5 68.5 199.95 60.05 199.95 48.15 199.95 38.45 194.1 30.75 Z"/>
</g>

<g id="Layer0_0_MEMBER_2_FILL">
<path fill="#FFFFFF" fill-opacity="0.6980392156862745" stroke="none" d="
M 7.5 0.7
Q 6.85 -0.15 5.35 0.05 3.85 0.2 2.35 1.35 0.85 2.5 0.25 3.9 -0.3 5.3 0.35 6.15 1 7 2.5 6.8 4 6.6 5.5 5.5 6.95 4.4 7.55 2.95 8.15 1.55 7.5 0.7 Z"/>
</g>
</defs>

<g transform="matrix( 10, 0, 0, 10, -1199.75,30.5) ">
<use xlink:href="#Layer0_0_MEMBER_0_MEMBER_0_FILL"/>
</g>

<g transform="matrix( 10, 0, 0, 10, -1199.75,30.5) ">
<use xlink:href="#Layer0_0_MEMBER_0_MEMBER_1_FILL"/>
</g>

<g transform="matrix( 10, 0, 0, 10, -1199.75,30.5) ">
<use xlink:href="#Layer0_0_MEMBER_0_MEMBER_2_FILL"/>
</g>

<g transform="matrix( 10, 0, 0, 10, -1199.75,30.5) ">
<use xlink:href="#Layer0_0_MEMBER_0_MEMBER_3_FILL"/>
</g>

<g transform="matrix( 10, 0, 0, 10, -1199.75,30.5) ">
<use xlink:href="#Layer0_0_MEMBER_0_MEMBER_4_FILL"/>
</g>

<g transform="matrix( 10, 0, 0, 10, -1199.75,30.5) ">
<use xlink:href="#Layer0_0_MEMBER_0_MEMBER_5_FILL"/>
</g>

<g transform="matrix( 10, 0, 0, 10, -1199.75,30.5) ">
<use xlink:href="#Layer0_0_MEMBER_0_MEMBER_6_FILL"/>
</g>

<g transform="matrix( 10, 0, 0, 10, -1199.75,30.5) ">
<use xlink:href="#Layer0_0_MEMBER_0_MEMBER_7_FILL"/>
</g>

<g transform="matrix( 10, 0, 0, 10, -1199.75,30.5) ">
<use xlink:href="#Layer0_0_MEMBER_0_MEMBER_8_FILL"/>
</g>

<g transform="matrix( 10, 0, 0, 10, -1199.75,30.5) ">
<use xlink:href="#Layer0_0_MEMBER_0_MEMBER_9_FILL"/>
</g>

<g transform="matrix( 10, 0, 0, 10, -1199.75,30.5) ">
<use xlink:href="#Layer0_0_MEMBER_0_MEMBER_10_FILL"/>
</g>

<g transform="matrix( 10, 0, 0, 10, -1199.75,30.5) ">
<use xlink:href="#Layer0_0_MEMBER_0_MEMBER_11_FILL"/>
</g>

<g transform="matrix( 10, 0, 0, 10, -1199.75,30.5) ">
<use xlink:href="#Layer0_0_MEMBER_0_MEMBER_12_FILL"/>
</g>

<g transform="matrix( 10, 0, 0, 10, -1199.75,30.5) ">
<use xlink:href="#Layer0_0_MEMBER_0_MEMBER_13_FILL"/>
</g>

<g transform="matrix( 10, 0, 0, 10, -1199.75,30.5) ">
<use xlink:href="#Layer0_0_MEMBER_1_FILL"/>
</g>

<g transform="matrix( 10, 0, 0, 10, 368.25,297) ">
<use xlink:href="#Layer0_0_MEMBER_2_FILL"/>
</g>
</svg>
